# AST/ASF file generated using VICON BodyLanguage
# -----------------------------------------------
:version 1.10
:name VICON
:units
  mass 1.0
  length 0.45
  angle deg
:documentation
   .ast/.asf automatically generated from VICON data using
   VICON BodyBuilder and BodyLanguage model FoxedUp or BRILLIANT.MOD
:root
   order TX TY TZ RX RY RZ
   axis XYZ
   position 0 0 0  
   orientation 0 0 0 
:bonedata
  begin
     id 1 
     name lhipjoint
     direction 0.661853 -0.702389 0.261917 
     length 2.64193 
     axis 0 0 0  XYZ
  end
  begin
     id 2 
     name lfemur
     direction 0.34202 -0.939693 0  
     length 7.01722  
     axis 0 0 20  XYZ
    dof rx ry rz
    limits (-160.0 20.0)
           (-70.0 70.0)
           (-60.0 70.0)
  end
  begin
     id 3 
     name ltibia
     direction 0.34202 -0.939693 0   
     length 8.25008   
     axis 0 0 20   XYZ
    dof rx
    limits (-10.0 170.0)
  end
  begin
     id 4 
     name lfoot
     direction 0.0709916 -0.195048 0.978221   
     length 2.31941   
     axis -90 7.62852e-016 20   XYZ
    dof rx rz
    limits (-45.0 90.0)
           (-70.0 20.0)
  end
  begin
     id 5 
     name ltoes
     direction 1.53586e-011 -4.22017e-011 1   
     length 1.16486   
     axis -90 7.62852e-016 20   XYZ
    dof rx
    limits (-90.0 20.0)
  end
  begin
     id 6 
     name rhipjoint
     direction -0.638185 -0.721362 0.268992   
     length 2.57244  
     axis 0 0 0  XYZ 
  end
  begin
     id 7 
     name rfemur
     direction -0.34202 -0.939693 0   
     length 7.07017   
     axis 0 0 -20   XYZ
    dof rx ry rz
    limits (-160.0 20.0)
           (-70.0 70.0)
           (-70.0 60.0)
  end
  begin
     id 8 
     name rtibia
     direction -0.34202 -0.939693 0   
     length 8.20386   
     axis 0 0 -20   XYZ
    dof rx
    limits (-10.0 170.0)
 end
 begin
     id 9 
     name rfoot
     direction -0.0822429 -0.225961 0.970658   
     length 2.32215  
     axis -90 -7.62852e-016 -20   XYZ
    dof rx rz
    limits (-45.0 90.0)
           (-20.0 70.0)
  end
  begin
     id 10 
     name rtoes
     direction -1.53597e-011 -4.21689e-011 1   
     length 1.16333   
     axis -90 -7.62852e-016 -20   XYZ
    dof rx
    limits (-90.0 20.0)
  end
  begin
     id 11 
     name lowerback
     direction -0.0131557 0.998589 -0.0514484   
     length 2.14993   
     axis 0 0 0   XYZ
    dof rx ry rz
    limits (-20.0 45.0)
           (-30.0 30.0)
           (-30.0 30.0)
  end
  begin
     id 12 
     name upperback
     direction -0.000776481 0.999993 0.00352685   
     length 2.15301   
     axis 0 0 0   XYZ
    dof rx ry rz
    limits (-20.0 45.0)
           (-30.0 30.0)
           (-30.0 30.0)
  end
  begin
     id 13 
     name thorax
     direction 0.00438186 0.999609 0.0276143   
     length 2.15424   
     axis 0 0 0   XYZ
    dof rx ry rz
    limits (-20.0 45.0)
           (-30.0 30.0)
           (-30.0 30.0)
  end
  begin
     id 14 
     name lowerneck
     direction -0.0488006 0.998094 0.0377807   
     length 1.90481   
     axis 0 0 0   XYZ
    dof rx ry rz
    limits (-20.0 45.0)
           (-30.0 30.0)
           (-30.0 30.0)
  end
  begin
     id 15 
     name upperneck
     direction 0.0443769 0.990702 -0.12861   
     length 1.91305   
     axis 0 0 0   XYZ
    dof rx ry rz
    limits (-20.0 45.0)
           (-30.0 30.0)
           (-30.0 30.0)
  end
  begin
     id 16
     name head
     direction 0.0165599 0.998647 -0.0492982  
     length 1.92369  
     axis 0 0 0   XYZ
    dof rx ry rz
    limits (-20.0 45.0)
           (-30.0 30.0)
           (-30.0 30.0)
  end
  begin
     id 17 
     name lclavicle
     direction 0.911936 0.410197 -0.0105506  
     length 3.52622  
     axis 0 0 0   XYZ
    dof ry rz
    limits (-20.0 10.0)
           (0.0 20.0)
  end
  begin
     id 18 
     name lhumerus
     direction 1 -4.48974e-011 -2.48591e-028   
     length 5.47651   
     axis 180 -30 -90   XYZ
    dof rx ry rz
    limits (-60.0 90.0)
           (-90.0 90.0)
           (-90.0 90.0)
  end
  begin
     id 19
     name lradius
     direction 1 -4.48938e-011 -4.40099e-027   
     length 3.09058   
     axis 180 -30 -90   XYZ
    dof rx
    limits (-10.0 170.0)
  end
  begin
     id 20
     name lwrist
     direction 1 -4.49042e-011 -2.99852e-027   
     length 1.54529   
     axis 1.95339e-015 90 90   XYZ
    dof ry
    limits (-180.0 0.0)
 end
  begin
     id 21 
     name lhand
     direction 1 -4.48815e-011 -5.98193e-027   
     length 0.771611   
     axis 3.82337e-015 90 90   XYZ
    dof rx rz
    limits (-90.0 90.0)
           (-45.0 45.0)
  end
  begin
     id 22 
     name lfingers
     direction 1 -4.49034e-011 -1.1993e-026   
     length 0.622093   
     axis 7.64668e-015 90 90   XYZ
    dof rx
    limits (0.0 90.0)
  end
  begin
     id 23
     name lthumb
     direction 0.707107 -6.34867e-011 0.707107   
     length 0.893204   
     axis -90 45 -1.62303e-014   XYZ
    dof rx rz
    limits (-45.0 45.0)
           (-45.0 45.0)
  end
  begin
     id 24 
     name rclavicle
     direction -0.93442 0.355634 -0.0195692   
     length 3.62463  
     axis 0 0 0   XYZ 
    dof ry rz
    limits (-10.0 20.0)
           (-20.0 0.0)
  end
  begin
     id 25 
     name rhumerus
     direction -1 -4.48957e-011 -1.19147e-027  
     length 5.14182   
     axis 180 30 90   XYZ
    dof rx ry rz
    limits (-90.0 60.0)
           (-90.0 90.0)
           (-90.0 90.0)
  end
  begin
     id 26 
     name rradius
     direction -1 -4.48952e-011 -3.81062e-027   
     length 3.35565   
     axis 180 30 90   XYZ
    dof rx
    limits (-10.0 170.0)
  end
  begin
     id 27 
     name rwrist
     direction -1 -4.48973e-011 -2.99621e-027   
     length 1.67782   
     axis 1.95339e-015 -90 -90   XYZ
    dof ry
    limits (-180.0 0.0)
  end
  begin
     id 28
     name rhand
     direction -1 -4.48895e-011 -5.98727e-027   
     length 0.801042   
     axis 3.82337e-015 -90 -90   XYZ
    dof rx rz
    limits (-90.0 90.0)
           (-45.0 45.0)
  end
  begin
     id 29
     name rfingers
     direction -1 -4.49065e-011 -1.19972e-026   
     length 0.645821   
     axis 7.64668e-015 -90 -90   XYZ
    dof rx
    limits (0.0 90.0)
  end
  begin
     id 30
     name rthumb
     direction -0.707107 -6.34957e-011 0.707107   
     length 0.927273   
     axis -90 -45 1.62303e-014   XYZ
    dof rx rz
    limits (-45.0 45.0)
           (-45.0 45.0)
  end
:hierarchy
  begin
    root lhipjoint rhipjoint lowerback
    lhipjoint lfemur
    lfemur ltibia
    ltibia lfoot
    lfoot ltoes
    rhipjoint rfemur
    rfemur rtibia
    rtibia rfoot
    rfoot rtoes
    lowerback upperback
    upperback thorax
    thorax lowerneck lclavicle rclavicle
    lowerneck upperneck
    upperneck head
    lclavicle lhumerus
    lhumerus lradius
    lradius lwrist
    lwrist lhand lthumb
    lhand lfingers
    rclavicle rhumerus
    rhumerus rradius
    rradius rwrist
    rwrist rhand rthumb
    rhand rfingers
  end

#!OML:ASF E:\Style4\Style4.ASF
:FULLY-SPECIFIED
:DEGREES
1
root -0.668623 18.1588 -0.160119 1.71493 -5.60872 1.24596
lowerback 2.42475 2.54463 -0.678348
upperback 4.00671 3.39422 -0.383364
thorax 2.74136 1.68172 -0.0144729
lowerneck -5.42726 -6.35357 -5.81118
upperneck 21.3289 -9.02781 4.86399
head 7.95654 -4.32323 1.78651
rclavicle 3.06128e-014 1.38155e-014
rhumerus -48.1943 19.2826 -95.5566
rradius 65.1699
rwrist -42.227
rhand -8.03777 2.24149
rfingers 7.12502
rthumb 17.8725 -26.9573
lclavicle 3.06128e-014 1.38155e-014
lhumerus -50.5562 -26.7226 98.2778
lradius 72.097
lwrist 37.036
lhand -7.78412 37.3265
lfingers 7.12502
lthumb 18.1165 66.5028
rfemur -5.68074 3.01318 20.3567
rtibia 18.0476
rfoot -13.1804 -19.0538
rtoes -8.30667
lfemur -0.728989 -2.65156 -18.0585
ltibia 12.0445
lfoot -14.2671 20.1291
ltoes -16.093
2
root -0.668185 18.1592 -0.156699 1.70153 -5.62933 1.27781
lowerback 2.45384 2.55831 -0.71189
upperback 3.99964 3.41201 -0.392205
thorax 2.71629 1.68993 -0.00655687
lowerneck -5.33718 -6.36297 -5.62755
upperneck 21.1889 -9.02606 4.69714
head 7.87666 -4.32595 1.7064
rclavicle -3.18801e-014 2.38542e-015
rhumerus -48.2451 19.2316 -95.5611
rradius 65.2209
rwrist -42.22
rhand -8.05234 2.26785
rfingers 7.12502
rthumb 17.8585 -26.9322
lclavicle -3.18801e-014 2.38542e-015
lhumerus -50.598 -26.7017 98.2781
lradius 72.151
lwrist 37.0386
lhand -7.75165 37.3251
lfingers 7.12502
lthumb 18.1478 66.4985
rfemur -5.67486 3.03828 20.3256
rtibia 18.0856
rfoot -13.1759 -19.0511
rtoes -8.56102
lfemur -0.645468 -2.65979 -18.0979
ltibia 11.9271
lfoot -14.3165 20.1506
ltoes -15.8403
3
root -0.668075 18.1591 -0.153573 1.68781 -5.64746 1.30804
lowerback 2.48178 2.55607 -0.740646
upperback 4.00122 3.4085 -0.394378
thorax 2.70075 1.68747 0.00585434
lowerneck -5.28042 -6.35488 -5.46486
upperneck 21.0658 -8.99379 4.51572
head 7.80725 -4.31626 1.62683
rclavicle -1.75924e-014 -1.07344e-014
rhumerus -48.2893 19.2226 -95.5629
rradius 65.284
rwrist -42.2134
rhand -8.03759 2.16029
rfingers 7.12502
rthumb 17.8727 -27.0384
lclavicle -1.75924e-014 -1.07344e-014
lhumerus -50.5991 -26.6176 98.2597
lradius 72.1726
lwrist 37.0262
lhand -7.80082 37.2307
lfingers 7.12502
lthumb 18.1005 66.4085
rfemur -5.66659 3.06191 20.293
rtibia 18.1083
rfoot -13.2027 -19.0727
rtoes -8.52605
lfemur -0.580966 -2.67064 -18.136
ltibia 11.8544
lfoot -14.3574 20.164
ltoes -15.6041
4
root -0.667109 18.1594 -0.149374 1.69573 -5.64841 1.33295
lowerback 2.45991 2.55029 -0.761592
upperback 4.00098 3.40114 -0.402278
thorax 2.71207 1.68327 0.01049
lowerneck -5.30639 -6.34938 -5.439
upperneck 21.0866 -8.98224 4.48105
head 7.81533 -4.31115 1.61136
rclavicle 3.49116e-014 5.96354e-016
rhumerus -48.3078 19.181 -95.582
rradius 65.3137
rwrist -42.1401
rhand -8.09324 2.07381
rfingers 7.12502
rthumb 17.8191 -27.1298
lclavicle 3.49116e-014 5.96354e-016
lhumerus -50.5851 -26.5841 98.2454
lradius 72.1256
lwrist 37.0065
lhand -7.81185 37.2887
lfingers 7.12502
lthumb 18.0899 66.4675
rfemur -5.67248 3.07438 20.2563
rtibia 18.1314
rfoot -13.2798 -19.0673
rtoes -8.20496
lfemur -0.550334 -2.63958 -18.1709
ltibia 11.8042
lfoot -14.3145 20.1798
ltoes -15.7489
5
root -0.666922 18.1588 -0.145558 1.695 -5.65746 1.35951
lowerback 2.47411 2.55791 -0.776897
upperback 3.98046 3.41109 -0.415534
thorax 2.68276 1.68819 0.0041028
lowerneck -5.28354 -6.33699 -5.41286
upperneck 21.0989 -8.96516 4.45792
head 7.81199 -4.30336 1.60192
rclavicle -1.66482e-015 -3.97569e-016
rhumerus -48.3507 19.1004 -95.6022
rradius 65.3201
rwrist -42.1084
rhand -8.14542 2.01703
rfingers 7.12502
rthumb 17.7689 -27.1911
lclavicle -1.66482e-015 -3.97569e-016
lhumerus -50.6175 -26.5705 98.2437
lradius 72.0954
lwrist 36.9962
lhand -7.8462 37.8059
lfingers 7.12502
lthumb 18.0568 66.9877
rfemur -5.67061 3.10659 20.2227
rtibia 18.1501
rfoot -13.2849 -19.0983
rtoes -8.27824
lfemur -0.527459 -2.61181 -18.2031
ltibia 11.797
lfoot -14.3402 20.1516
ltoes -15.8537
6
root -0.667687 18.1585 -0.145204 1.70123 -5.69163 1.30953
lowerback 2.52536 2.56443 -0.757151
upperback 3.96092 3.41833 -0.382809
thorax 2.63291 1.6921 0.0234755
lowerneck -5.24854 -6.31086 -5.47021
upperneck 21.0641 -8.93127 4.50512
head 7.79716 -4.28856 1.63132
rclavicle -6.15239e-014 -2.98177e-016
rhumerus -48.3457 19.0656 -95.5953
rradius 65.2883
rwrist -42.0315
rhand -8.20721 1.90553
rfingers 7.12502
rthumb 17.7095 -27.308
lclavicle -6.15239e-014 -2.98177e-016
lhumerus -50.62 -26.5288 98.2648
lradius 72.0564
lwrist 37.0456
lhand -7.94665 37.6348
lfingers 7.12502
lthumb 17.9602 66.8255
rfemur -5.67779 3.15995 20.2879
rtibia 18.1489
rfoot -13.2027 -19.1442
rtoes -8.57166
lfemur -0.537335 -2.58333 -18.144
ltibia 11.8309
lfoot -14.3211 20.1387
ltoes -15.8934
7
root -0.667768 18.1578 -0.143622 1.71598 -5.71351 1.28733
lowerback 2.51826 2.56939 -0.745471
upperback 3.9644 3.42487 -0.370178
thorax 2.64035 1.69544 0.0303492
lowerneck -5.20524 -6.29117 -5.50932
upperneck 20.973 -8.90994 4.57065
head 7.7628 -4.27746 1.66327
rclavicle -3.926e-015 6.4605e-015
rhumerus -48.3079 19.0433 -95.5783
rradius 65.2861
rwrist -42.0114
rhand -8.31337 1.8186
rfingers 7.12502
rthumb 17.6073 -27.4041
lclavicle -3.926e-015 6.4605e-015
lhumerus -50.5687 -26.4881 98.2534
lradius 72.0205
lwrist 37.0601
lhand -7.86797 37.0891
lfingers 7.12502
lthumb 18.0359 66.2728
rfemur -5.69276 3.16303 20.3188
rtibia 18.1493
rfoot -13.1873 -19.1327
rtoes -8.57894
lfemur -0.564899 -2.58711 -18.1201
ltibia 11.8698
lfoot -14.3168 20.1534
ltoes -15.8723
8
root -0.665866 18.1577 -0.139431 1.71249 -5.71377 1.25933
lowerback 2.49385 2.5543 -0.716926
upperback 3.97915 3.40496 -0.349376
thorax 2.66973 1.68579 0.0374749
lowerneck -5.21518 -6.28249 -5.54459
upperneck 20.9624 -8.89447 4.57972
head 7.76231 -4.27195 1.67313
rclavicle 2.62893e-014 6.75868e-015
rhumerus -48.2923 19.0282 -95.5628
rradius 65.2733
rwrist -41.9411
rhand -8.32216 1.82974
rfingers 7.12502
rthumb 17.5988 -27.3938
lclavicle 2.62893e-014 6.75868e-015
lhumerus -50.5323 -26.3366 98.2264
lradius 72.0184
lwrist 37.0185
lhand -8.35382 36.4004
lfingers 7.12502
lthumb 17.5684 65.6267
rfemur -5.65542 3.15694 20.3413
rtibia 18.1283
rfoot -13.3076 -19.0882
rtoes -8.30216
lfemur -0.587746 -2.62129 -18.0985
ltibia 11.9532
lfoot -14.4998 20.1332
ltoes -15.4623
9
root -0.664891 18.1583 -0.137327 1.71373 -5.71655 1.23308
lowerback 2.49362 2.55533 -0.684852
upperback 3.98996 3.4064 -0.338197
thorax 2.6822 1.68716 0.0314295
lowerneck -5.22106 -6.28147 -5.54559
upperneck 20.9413 -8.89231 4.58344
head 7.75649 -4.27074 1.67467
rclavicle -4.49253e-014 1.33186e-014
rhumerus -48.2668 18.9974 -95.5329
rradius 65.2824
rwrist -41.9422
rhand -8.34705 1.88037
rfingers 7.12502
rthumb 17.5749 -27.3453
lclavicle -4.49253e-014 1.33186e-014
lhumerus -50.4902 -26.2305 98.1968
lradius 72.0044
lwrist 36.9714
lhand -9.2373 35.4591
lfingers 7.12502
lthumb 16.718 64.7593
rfemur -5.63199 3.1808 20.3674
rtibia 18.1111
rfoot -13.3211 -19.0962
rtoes -8.35627
lfemur -0.619096 -2.64847 -18.077
ltibia 12.0212
lfoot -14.6288 20.136
ltoes -15.2272
10
root -0.664648 18.158 -0.135598 1.72899 -5.71833 1.20809
lowerback 2.49206 2.55639 -0.640538
upperback 3.98925 3.40828 -0.347001
thorax 2.68544 1.68946 -0.00213228
lowerneck -5.19534 -6.26983 -5.52167
upperneck 20.9152 -8.87899 4.5837
head 7.74126 -4.26331 1.67325
rclavicle -3.23025e-014 6.55989e-015
rhumerus -48.2243 18.9289 -95.5412
rradius 65.2614
rwrist -41.9499
rhand -8.47467 2.01835
rfingers 7.12502
rthumb 17.4521 -27.2182
lclavicle -3.23025e-014 6.55989e-015
lhumerus -50.4654 -26.1895 98.1658
lradius 71.9501
lwrist 36.9325
lhand -9.25135 35.374
lfingers 7.12502
lthumb 16.7045 64.6753
rfemur -5.64778 3.19752 20.3953
rtibia 18.1107
rfoot -13.2875 -19.1414
rtoes -8.41105
lfemur -0.642889 -2.65137 -18.0522
ltibia 12.0348
lfoot -14.5557 20.1687
ltoes -15.5257
11
root -0.663892 18.1574 -0.134168 1.76312 -5.71289 1.26222
lowerback 2.47368 2.55168 -0.69208
upperback 3.97397 3.40218 -0.36645
thorax 2.67819 1.68532 0.00706234
lowerneck -5.10924 -6.2642 -5.32554
upperneck 20.8069 -8.85531 4.39619
head 7.67063 -4.25595 1.58654
rclavicle 3.60546e-014 -3.37934e-015
rhumerus -48.2412 18.9044 -95.5471
rradius 65.2836
rwrist -41.9734
rhand -8.59207 2.06325
rfingers 7.12502
rthumb 17.3391 -27.1833
lclavicle 3.60546e-014 -3.37934e-015
lhumerus -50.4823 -26.1219 98.1449
lradius 71.9341
lwrist 36.8729
lhand -8.44917 36.1916
lfingers 7.12502
lthumb 17.4766 65.426
rfemur -5.7008 3.14386 20.3299
rtibia 18.1134
rfoot -13.1576 -19.1313
rtoes -8.69337
lfemur -0.684258 -2.68248 -18.1205
ltibia 12.0443
lfoot -14.5566 20.2221
ltoes -15.8572
12
root -0.66368 18.1584 -0.131814 1.77534 -5.71045 1.31335
lowerback 2.4529 2.5559 -0.736157
upperback 3.9796 3.40818 -0.381918
thorax 2.69405 1.68725 0.0169006
lowerneck -5.045 -6.27448 -5.17219
upperneck 20.6942 -8.85647 4.25428
head 7.60812 -4.25928 1.51878
rclavicle 3.90612e-014 5.66536e-015
rhumerus -48.2401 18.8258 -95.5262
rradius 65.3087
rwrist -41.9488
rhand -8.54575 2.05492
rfingers 7.12502
rthumb 17.3837 -27.1877
lclavicle 3.90612e-014 5.66536e-015
lhumerus -50.5118 -26.1111 98.1682
lradius 71.9622
lwrist 37.0162
lhand -8.2708 36.4573
lfingers 7.12502
lthumb 17.6483 65.6763
rfemur -5.71098 3.11768 20.2715
rtibia 18.118
rfoot -13.1096 -19.1148
rtoes -8.8082
lfemur -0.700742 -2.7152 -18.1837
ltibia 12.0628
lfoot -14.6327 20.2363
ltoes -15.5843
13
root -0.663257 18.1598 -0.130486 1.78079 -5.69524 1.23138
lowerback 2.47217 2.55088 -0.646227
upperback 3.98426 3.40131 -0.356795
thorax 2.69172 1.68595 -0.00814241
lowerneck -5.10368 -6.27148 -5.1666
upperneck 20.7165 -8.84879 4.24014
head 7.62467 -4.25512 1.51176
rclavicle 1.06847e-014 -1.14301e-014
rhumerus -48.2122 18.8008 -95.5183
rradius 65.275
rwrist -41.8956
rhand -8.59711 2.13559
rfingers 7.12502
rthumb 17.3342 -27.1114
lclavicle 1.06847e-014 -1.14301e-014
lhumerus -50.5686 -26.1202 98.2827
lradius 71.9923
lwrist 37.5616
lhand -8.70567 36.5527
lfingers 7.12502
lthumb 17.2297 65.8088
rfemur -5.69947 3.1208 20.3625
rtibia 18.1265
rfoot -13.1818 -19.1172
rtoes -8.47798
lfemur -0.705908 -2.71649 -18.0925
ltibia 12.0732
lfoot -14.592 20.2442
ltoes -15.7418
